<svg width="675" height="184" fill="none" xmlns="http://www.w3.org/2000/svg"><path d="M61.84 139.587c31.019 0 49.508-18.119 49.508-39.229 0-16.63-10.09-27.28-26.72-33.07 9.35-5.6 17.38-15.88 17.38-28.209 0-19.99-16.63-32.32-45.769-32.32-12.52 0-15.51 1.12-27.28 1.12-11.77 0-19.61-.93-24.48-.93C1.5 6.95 0 8.63 0 11.06c0 2.06 1.12 3.74 5.04 4.48 10.1 1.49 12.52 3.55 12.52 8.59.19 15.88.37 27.84.37 48.76 0 20.92 0 33.259-.37 49.139-.19 5.42-2.06 6.91-12.14 7.85-3.92.56-5.04 2.43-5.04 4.48 0 2.43 1.5 4.109 4.48 4.109 7.29 0 14.2-.369 24.1-.369 9.34 0 17.94 1.499 32.88 1.499v-.01ZM40.17 24.129c0-3.74.94-5.23 3.74-6.35 2.24-.75 5.6-1.12 10.84-1.12 15.509 0 25.039 8.41 25.039 24.85 0 9.15-2.99 16.81-7.84 22.61-9.54-1.68-20.37-2.24-32.14-1.68 0-14.76 0-25.41.37-38.3l-.01-.01Zm7.67 104.069c-5.61-1.31-7.48-3.18-7.67-9.9-.37-14.2-.37-25.22-.37-45.4v-.37c31.769-.75 48.389 6.35 48.389 29.52 0 13.64-9.71 27.28-29.33 27.28-5.05 0-8.23-.37-11.02-1.12v-.01Zm113.948 11.759c16.259 0 27.469-8.029 34.189-16.069 2.99-3.55 1.12-6.73-1.86-6.73-.75 0-1.5.37-2.24.75-7.84 4.86-14.01 7.47-22.42 7.47-18.499 0-29.529-16.25-29.529-34.75v-.37c18.32-2.62 36.249-6.17 54.749-10.46 2.42-.56 4.1-2.43 3.54-5.23-2.98-13.45-15.31-28.21-36.609-28.21-21.3 0-40.92 19.8-40.92 48.39 0 26.9 17.38 45.209 41.1 45.209Zm-1.3-84.068c11.959 0 17.369 10.84 17.369 15.13 0 1.49-.75 2.62-2.43 2.99-10.089 2.62-22.229 5.04-34.939 7.29 2.24-17 10.65-25.41 20-25.41Zm45.389 82.578c5.98 0 12.33-.559 19.62-.559 7.29 0 15.689.559 21.669.559 2.62 0 3.92-1.679 3.92-3.549 0-2.05-1.11-3.74-4.85-4.3-9.53-1.12-10.46-2.05-10.65-5.98-.369-10.28-.369-19.43-.369-31.39v-15.69c9.709-12.89 14.199-15.51 19.049-15.51 5.8 0 10.65 7.29 13.08 7.29 1.31 0 2.06-.37 2.99-2.24 1.87-3.74 3.73-7.47 5.6-11.4 1.12-2.43.56-3.74-1.68-5.23-4.48-2.99-9.15-5.04-13.82-5.04-8.23 0-15.7 6.91-25.039 22.23 0-6.17.19-12.89.37-20.36 0-2.43-1.5-2.99-3.55-2.43-9.71 2.61-18.87 4.11-26.72 4.67-3.17.37-4.29 1.68-4.29 3.74 0 2.06 1.12 3.55 4.66 4.11 8.23 1.49 9.16 2.43 9.35 6.54.37 9.34.37 19.24.37 29.33 0 11.96 0 21.11-.37 31.39-.19 3.92-.75 4.86-8.98 5.98-3.36.75-4.48 2.24-4.48 4.3 0 1.87 1.31 3.549 4.1 3.549l.02-.01Zm69.309 0c6.17 0 12.33-.559 19.81-.559 7.48 0 13.819.559 19.989.559 2.8 0 4.1-1.679 4.1-3.549 0-2.05-1.12-3.55-4.48-4.3-8.4-1.31-9.34-1.87-9.34-5.79-.19-5.98-.19-11.96-.19-17.75 4.1-2.62 8.22-5.42 12.14-8.22 7.84 11.77 15.87 23.91 23.72 35.12 2.43 3.55 3.74 4.299 7.67 4.299 5.6 0 12.52-.19 20.55 0 2.809 0 4.299-1.679 4.299-3.739 0-1.87-.75-3.55-4.679-3.92-5.23-.56-8.03-3.18-12.52-8.97-7.84-10.65-16.06-22.79-23.73-34.56 0-.19.19-.19.37-.37 14.39-12.52 23.92-22.05 31.01-31.39.93-1.31 1.5-2.43 1.5-3.55 0-2.24-1.5-3.74-4.48-3.55-8.78.75-16.82.75-26.72.19-3.93-.19-5.04 1.68-5.04 3.55 0 1.68 1.3 3.55 3.92 4.11l3.74.93c6.16 1.5 6.16 6.54-1.5 14.57-8.22 8.78-18.87 17.19-30.45 24.47v-23.17c0-15.51 0-32.509.56-70.248 0-2.43-1.5-2.99-3.549-2.43-9.71 2.43-19.05 3.92-26.72 4.67-3.17.19-4.48 1.68-4.48 3.55 0 2.05 1.31 3.55 4.85 4.11 8.23 1.49 9.15 2.43 9.34 6.73.37 18.869.37 36.619.37 53.619s0 33.819-.37 51.939c-.19 3.92-.94 4.48-9.34 5.79-3.36.75-4.48 2.24-4.48 4.3 0 1.87 1.31 3.55 4.1 3.55l.03.009Zm134.888 1.49c16.26 0 27.469-8.029 34.189-16.069 2.99-3.55 1.12-6.73-1.86-6.73-.75 0-1.5.37-2.24.75-7.849 4.86-14.009 7.47-22.419 7.47-18.5 0-29.53-16.25-29.53-34.75v-.37c18.32-2.62 36.25-6.17 54.749-10.46 2.42-.56 4.1-2.43 3.54-5.23-2.99-13.45-15.309-28.21-36.619-28.21-21.31 0-40.909 19.8-40.909 48.39 0 26.9 17.379 45.209 41.099 45.209Zm-1.3-84.068c11.95 0 17.37 10.84 17.37 15.13 0 1.49-.75 2.62-2.43 2.99-10.09 2.62-22.23 5.04-34.94 7.29 2.24-17 10.65-25.41 20-25.41Zm42.219 82.578c6.16 0 12.71-.559 20.17-.559 7.46 0 14.39.559 20.55.559 2.81 0 4.11-1.679 4.11-3.549 0-2.05-1.31-3.92-4.49-4.3-8.4-.93-9.9-1.87-9.9-5.79-.37-18.12-.37-35.12-.37-51.94 0-15.51 0-32.509.56-70.248 0-2.43-1.5-2.99-3.55-2.43-9.71 2.43-19.05 3.92-26.71 4.67-3.18.19-4.49 1.68-4.49 3.55 0 2.05 1.31 3.55 4.86 4.11 8.22 1.49 9.15 2.43 9.34 6.73.37 18.869.37 36.619.37 53.618 0 17 0 33.82-.37 51.94-.19 3.92-1.31 4.67-9.71 5.79-3.37.37-4.49 2.24-4.49 4.3 0 1.87 1.31 3.549 4.11 3.549h.01Zm87.249 1.49c16.26 0 27.47-8.029 34.19-16.069 2.989-3.55 1.119-6.73-1.87-6.73-.75 0-1.5.37-2.24.75-7.84 4.86-14 7.47-22.42 7.47-18.49 0-29.51-16.25-29.51-34.75v-.37c18.3-2.62 36.25-6.17 54.74-10.46 2.43-.56 4.109-2.43 3.549-5.23-2.989-13.45-15.319-28.21-36.619-28.21-21.3 0-40.909 19.8-40.909 48.39 0 26.9 17.369 45.209 41.099 45.209h-.01Zm-1.31-84.068c11.96 0 17.38 10.84 17.38 15.13 0 1.49-.75 2.62-2.43 2.99-10.09 2.62-22.23 5.04-34.94 7.29 2.24-17 10.65-25.41 19.99-25.41Zm58.289 127.608c9.34 0 18.12-6.91 35.69-43.72 11.96-26.159 20.919-49.319 30.259-73.048 2.99-7.66 4.49-9.15 9.15-10.46 3.37-.93 4.68-2.24 4.68-4.3 0-1.87-1.12-3.55-3.93-3.55-4.1 0-8.97.56-14.56.56s-10.1-.56-14.39-.56c-2.619 0-3.929 1.49-3.929 3.36 0 2.05 1.31 3.36 4.299 4.3 8.22 2.24 8.97 5.79 5.79 15.51-5.04 15.32-10.649 30.079-19.239 49.699-7.28-18.12-13.45-34.38-19.61-52.69-2.24-7.1-1.5-10.09 7.28-12.52 3.37-.93 4.49-2.05 4.49-4.11 0-2.06-1.5-3.55-4.11-3.55-5.6 0-11.4.56-19.05.56-8.23 0-14.2-.56-20-.56-2.789 0-4.1 1.68-4.1 3.55 0 2.24 1.121 3.36 4.48 4.3 4.3 1.12 5.61 2.61 8.23 9.34 10.27 25.59 19.43 48.2 31.38 78.839-8.03 14.76-14.01 18.12-22.05 19.62-6.55 1.12-10.84 5.23-10.84 10.46 0 4.3 2.99 8.97 10.09 8.97h-.01Z" fill="#FDB515"/></svg>